<svg width="32" height="32" viewBox="0 0 32 32" fill="none" xmlns="http://www.w3.org/2000/svg">
  <rect width="32" height="32" rx="8" fill="#1a1a1a"/>
  <!-- Geological/Mining themed icon - Diamond/Crystal shape -->
  <path d="M16 4L22 10L16 16L10 10L16 4Z" fill="#FFD700" stroke="#FFA500" stroke-width="1.5"/>
  <path d="M16 16L22 22L16 28L10 22L16 16Z" fill="#8B4513" stroke="#654321" stroke-width="1.5"/>
  <!-- Central geological core with mining elements -->
  <polygon points="16,8 20,12 16,16 12,12" fill="#FFD700" stroke="#FFA500" stroke-width="1"/>
  <polygon points="16,16 20,20 16,24 12,20" fill="#8B4513" stroke="#654321" stroke-width="1"/>
  <!-- Mining tools and geological elements -->
  <path d="M6 6L10 10" stroke="#FFD700" stroke-width="2" stroke-linecap="round"/>
  <path d="M26 6L22 10" stroke="#8B4513" stroke-width="2" stroke-linecap="round"/>
  <path d="M6 26L10 22" stroke="#FFD700" stroke-width="2" stroke-linecap="round"/>
  <path d="M26 26L22 22" stroke="#8B4513" stroke-width="2" stroke-linecap="round"/>
  <!-- Geological survey grid -->
  <path d="M8 8L24 8" stroke="#8B4513" stroke-width="0.5" stroke-dasharray="1,1"/>
  <path d="M8 24L24 24" stroke="#8B4513" stroke-width="0.5" stroke-dasharray="1,1"/>
  <path d="M8 8L8 24" stroke="#8B4513" stroke-width="0.5" stroke-dasharray="1,1"/>
  <path d="M24 8L24 24" stroke="#8B4513" stroke-width="0.5" stroke-dasharray="1,1"/>
</svg>
